<svg xmlns="http://www.w3.org/2000/svg" viewBox="0 0 145.33 125.62"><defs><style>.cls-1{fill:#5577cd;}.cls-2{fill:#182839;}.cls-3{fill:#38b885;}.cls-4{fill:#fbc444;}</style></defs><title>Recurso 3</title><g id="Capa_2" data-name="Capa 2"><g id="Capa_2-2" data-name="Capa 2"><path class="cls-1" d="M70.1,79.15A8.28,8.28,0,0,0,64,87.28c-.2,12.35-10.9,22.33-24,22.33S16,99.44,16,86.93V32.64a8,8,0,0,0-8.25-8A8.22,8.22,0,0,0,0,33v54c0,21.33,18,38.69,40,38.69s40-17.36,40-38.69A8,8,0,0,0,70.1,79.15Z"/><path class="cls-2" d="M72.05,0H8A8,8,0,1,0,8,16H32V88.67a8,8,0,1,0,16,0V16h24a8,8,0,0,0,0-16Z"/><circle class="cls-3" cx="72.05" cy="35.72" r="8.01"/><circle class="cls-4" cx="72.05" cy="60.35" r="8.01"/><path class="cls-3" d="M96.06,43.72h40.65a8,8,0,0,0,0-16H96.06a8,8,0,0,0,0,16Z"/><path class="cls-4" d="M137.32,52.34H96.68a8,8,0,1,0,0,16h40.64a8,8,0,1,0,0-16Z"/><path class="cls-1" d="M137.32,77H96.68a8,8,0,1,0,0,16h40.64a8,8,0,1,0,0-16Z"/></g></g></svg>