<svg xmlns="http://www.w3.org/2000/svg" viewBox="0 0 266.9 165.5"><defs><style>.cls-1{fill:#5577cd;}.cls-2{fill:#e6e6e6;}.cls-3{fill:#38b885;}.cls-4{fill:#fbc444;}</style></defs><title>Recurso 5</title><g id="Capa_2" data-name="Capa 2"><g id="Capa_2-2" data-name="Capa 2"><path class="cls-1" d="M137,79.15A8.3,8.3,0,0,0,131,87.28c-.2,12.35-10.89,22.33-24,22.33S83,99.44,83,86.93V32.64a8,8,0,0,0-8.26-8A8.22,8.22,0,0,0,66.93,33v54c0,21.33,18,38.69,40,38.69s40-17.36,40-38.69A8,8,0,0,0,137,79.15Z"/><path class="cls-2" d="M139,0h-64a8,8,0,1,0,0,16H99V88.67a8,8,0,1,0,16,0V16h24a8,8,0,1,0,0-16Z"/><circle class="cls-3" cx="138.98" cy="35.72" r="8.01"/><circle class="cls-4" cx="138.98" cy="60.35" r="8.01"/><path class="cls-3" d="M163,43.72h40.64a8,8,0,1,0,0-16H163a8,8,0,1,0,0,16Z"/><path class="cls-4" d="M204.26,52.34H163.61a8,8,0,0,0,0,16h40.65a8,8,0,0,0,0-16Z"/><path class="cls-1" d="M204.26,77H163.61a8,8,0,0,0,0,16h40.65a8,8,0,0,0,0-16Z"/><path class="cls-2" d="M17.64,154.31c0,2.78-.62,4.81-1.84,6.1a6.87,6.87,0,0,1-5.22,1.92,6.82,6.82,0,0,1-5.18-1.92q-1.85-1.93-1.84-6.1v-14H0v14.18c0,3.62.94,6.36,2.81,8.24a10.49,10.49,0,0,0,7.74,2.81,10.47,10.47,0,0,0,7.75-2.81c1.86-1.88,2.79-4.62,2.79-8.24V140.27H17.64Z"/><polygon class="cls-2" points="40.19 143.37 48.74 143.37 48.74 165.22 52.27 165.22 52.27 143.37 60.82 143.37 60.82 140.27 40.19 140.27 40.19 143.37"/><polygon class="cls-2" points="111.02 140.27 107.46 140.27 107.46 165.22 124.53 165.22 124.53 162.12 111.02 162.12 111.02 140.27"/><path class="cls-2" d="M146.54,161.07a4,4,0,0,1,1.5.38V143h-1.5Z"/><path class="cls-2" d="M147.54,140.27H145a.5.5,0,0,0-.5.51v1.68H148v-1.68A.5.5,0,0,0,147.54,140.27Z"/><path class="cls-2" d="M146,143h-1.56v18.51a4.09,4.09,0,0,1,1.56-.4Z"/><path class="cls-2" d="M144.48,162l1.78,3.19,1.78-3.15V162a3.71,3.71,0,0,0-3.56,0Z"/><path class="cls-2" d="M82.09,144.42a4.05,4.05,0,0,1-1.51-.38v18.49h1.51Z"/><path class="cls-2" d="M80.58,164.71a.51.51,0,0,0,.51.51h2.55a.51.51,0,0,0,.51-.51V163H80.58Z"/><path class="cls-2" d="M82.59,162.53h1.56V144a4.13,4.13,0,0,1-1.56.4Z"/><path class="cls-2" d="M84.14,143.46l-1.78-3.19-1.78,3.15v.07a3.7,3.7,0,0,0,1.76.44A3.66,3.66,0,0,0,84.14,143.46Z"/><path class="cls-2" d="M185.33,153.21a13.3,13.3,0,0,0-3-1.21c-1.08-.31-2.16-.59-3.22-.84a29.06,29.06,0,0,1-2.94-.84,6,6,0,0,1-2.18-1.24,2.76,2.76,0,0,1-.83-2.11,3.35,3.35,0,0,1,.62-2,4.15,4.15,0,0,1,2-1.43,9.62,9.62,0,0,1,3.45-.53,13.28,13.28,0,0,1,3.46.48,11.47,11.47,0,0,1,3.38,1.55l1.18-2.85a12.11,12.11,0,0,0-3.71-1.64,16.62,16.62,0,0,0-4.31-.57,13,13,0,0,0-5.4,1,7.05,7.05,0,0,0-3.13,2.6,6.52,6.52,0,0,0-1,3.55,6,6,0,0,0,.82,3.26,6.13,6.13,0,0,0,2.16,2,14.13,14.13,0,0,0,3,1.23c1.08.32,2.15.6,3.22.83a24.65,24.65,0,0,1,2.94.84,6.11,6.11,0,0,1,2.17,1.27,2.68,2.68,0,0,1,.84,2.06,3.23,3.23,0,0,1-.64,2,4.17,4.17,0,0,1-2,1.37,10.15,10.15,0,0,1-3.52.5,13,13,0,0,1-4.6-.82,11.47,11.47,0,0,1-3.63-2.06l-1.32,2.77a11.08,11.08,0,0,0,4.1,2.27,17,17,0,0,0,5.45.87,13.22,13.22,0,0,0,5.43-1,7.12,7.12,0,0,0,3.19-2.6,6.39,6.39,0,0,0,1-3.51,5.71,5.71,0,0,0-.82-3.21A6.05,6.05,0,0,0,185.33,153.21Z"/><polygon class="cls-2" points="205.4 143.37 213.96 143.37 213.96 165.22 217.48 165.22 217.48 143.37 226.03 143.37 226.03 140.27 205.4 140.27 205.4 143.37"/><path class="cls-2" d="M255.57,140.27H252l-11.29,24.95h3.67l2.74-6.24h13.26l2.74,6.24h3.74Zm-7.16,15.86,5.38-12.24,5.38,12.24Z"/></g></g></svg>